<svg xmlns="http://www.w3.org/2000/svg" viewBox="0 0 32 32">
  <rect width="32" height="32" rx="8" fill="#0b0b0a"/>
  <g fill="#ede8dc">
    <rect x="3.4" y="4.9" width="5.2" height="2.2" rx="1.1"/><rect x="11.56" y="3.4" width="2.2" height="5.2" rx="1.1" opacity=".55"/>
    <rect x="16.72" y="4.9" width="5.2" height="2.2" rx="1.1"/><rect x="24.88" y="3.4" width="2.2" height="5.2" rx="1.1" opacity=".55"/>
    <rect x="4.9" y="10.06" width="2.2" height="5.2" rx="1.1" opacity=".55"/><rect x="10.06" y="11.56" width="5.2" height="2.2" rx="1.1"/>
    <rect x="24.88" y="10.06" width="2.2" height="5.2" rx="1.1" opacity=".55"/>
    <rect x="3.4" y="18.22" width="5.2" height="2.2" rx="1.1"/><rect x="11.56" y="16.72" width="2.2" height="5.2" rx="1.1" opacity=".55"/>
    <rect x="16.72" y="18.22" width="5.2" height="2.2" rx="1.1"/><rect x="24.88" y="16.72" width="2.2" height="5.2" rx="1.1" opacity=".55"/>
    <rect x="4.9" y="23.38" width="2.2" height="5.2" rx="1.1" opacity=".55"/><rect x="10.06" y="24.88" width="5.2" height="2.2" rx="1.1"/>
    <rect x="18.22" y="23.38" width="2.2" height="5.2" rx="1.1" opacity=".55"/><rect x="23.38" y="24.88" width="5.2" height="2.2" rx="1.1"/>
  </g>
  <rect x="18.22" y="10.06" width="2.2" height="5.2" rx="1.1" fill="#7480ff"/>
</svg>
